<svg width="30" height="29" viewBox="0 0 30 29" fill="none" xmlns="http://www.w3.org/2000/svg">
<path d="M29.5 14.5898C29.5 6.52986 23.0049 0 15 0C6.98966 0 0.5 6.52986 0.5 14.5898C0.5 21.8701 5.80066 27.9067 12.7344 29V18.8081H9.05228V14.5907H12.7344V11.3746C12.7344 7.71893 14.8958 5.70006 18.209 5.70006C19.7959 5.70006 21.457 5.98456 21.457 5.98456V9.57457H19.6255C17.8275 9.57457 17.2656 10.7007 17.2656 11.8542V14.5898H21.2867L20.6405 18.8072H17.2656V28.9991C24.1939 27.9058 29.5 21.8692 29.5 14.5889V14.5898Z" fill="black"/>
</svg>
