<svg width="29" height="28" viewBox="0 0 29 28" fill="none" xmlns="http://www.w3.org/2000/svg">
<path d="M20.1846 9.69937C20.0631 9.38474 19.8771 9.09903 19.6384 8.86067C19.3998 8.62231 19.1139 8.43657 18.7992 8.31542C18.3658 8.15489 17.908 8.07004 17.4458 8.06458C16.6773 8.02958 16.4469 8.02083 14.5 8.02083C12.5531 8.02083 12.3227 8.02958 11.5542 8.06458C11.0915 8.06988 10.6332 8.15473 10.1994 8.31542C9.88474 8.4369 9.59904 8.62294 9.36068 8.86155C9.12231 9.10017 8.93657 9.38607 8.81542 9.70083C8.6549 10.1342 8.57005 10.592 8.56459 11.0542C8.52959 11.8227 8.52084 12.0531 8.52084 14C8.52084 15.9469 8.52959 16.1773 8.56459 16.9458C8.56988 17.4085 8.65473 17.8668 8.81542 18.3006C8.9369 18.6153 9.12295 18.901 9.36156 19.1393C9.60018 19.3777 9.88607 19.5634 10.2008 19.6846C10.6342 19.8451 11.092 19.93 11.5542 19.9354C12.3227 19.9704 12.5531 19.9777 14.5 19.9777C16.4469 19.9777 16.6773 19.9704 17.4458 19.934C17.9084 19.9291 18.3667 19.8448 18.8006 19.6846C19.1153 19.5631 19.401 19.3771 19.6393 19.1384C19.8777 18.8998 20.0634 18.6139 20.1846 18.2992C20.3451 17.8658 20.43 17.408 20.4354 16.9458C20.4704 16.1773 20.4777 15.9469 20.4777 14C20.4777 12.0531 20.4704 11.8227 20.434 11.0542C20.4291 10.5916 20.3448 10.1333 20.1846 9.69937ZM14.5 17.745C13.7593 17.745 13.0353 17.5254 12.4194 17.1138C11.8035 16.7023 11.3235 16.1175 11.0401 15.4331C10.7566 14.7488 10.6825 13.9958 10.827 13.2694C10.9715 12.5429 11.3281 11.8756 11.8519 11.3519C12.3756 10.8281 13.0429 10.4715 13.7694 10.327C14.4958 10.1825 15.2488 10.2566 15.9332 10.5401C16.6175 10.8235 17.2024 11.3035 17.6139 11.9194C18.0254 12.5352 18.245 13.2593 18.245 14C18.245 14.9932 17.8504 15.9458 17.1481 16.6481C16.4458 17.3504 15.4932 17.745 14.5 17.745ZM18.3923 10.9827C18.2192 10.9827 18.0501 10.9314 17.9062 10.8352C17.7623 10.7391 17.6501 10.6024 17.5839 10.4426C17.5177 10.2827 17.5003 10.1067 17.5341 9.937C17.5679 9.76727 17.6512 9.61136 17.7736 9.48899C17.8959 9.36662 18.0519 9.28328 18.2216 9.24952C18.3913 9.21576 18.5673 9.23308 18.7271 9.29931C18.887 9.36554 19.0237 9.47769 19.1198 9.62158C19.216 9.76548 19.2673 9.93465 19.2673 10.1077C19.2673 10.3398 19.1751 10.5623 19.011 10.7264C18.8469 10.8905 18.6244 10.9827 18.3923 10.9827ZM16.931 14C16.931 14.4808 16.7885 14.9508 16.5213 15.3506C16.2542 15.7504 15.8745 16.062 15.4303 16.246C14.9861 16.43 14.4973 16.4781 14.0257 16.3843C13.5542 16.2905 13.121 16.059 12.781 15.719C12.441 15.379 12.2095 14.9458 12.1157 14.4743C12.0219 14.0027 12.07 13.5139 12.254 13.0697C12.438 12.6255 12.7496 12.2458 13.1494 11.9787C13.5492 11.7115 14.0192 11.569 14.5 11.569C15.1448 11.569 15.7631 11.8251 16.219 12.281C16.6749 12.7369 16.931 13.3552 16.931 14ZM14.5 0C11.7311 0 9.02431 0.821085 6.72202 2.35942C4.41973 3.89776 2.62532 6.08427 1.56569 8.64243C0.506066 11.2006 0.228819 14.0155 0.769012 16.7313C1.30921 19.447 2.64258 21.9416 4.60051 23.8995C6.55845 25.8574 9.05301 27.1908 11.7687 27.731C14.4845 28.2712 17.2994 27.9939 19.8576 26.9343C22.4157 25.8747 24.6022 24.0803 26.1406 21.778C27.6789 19.4757 28.5 16.7689 28.5 14C28.5 10.287 27.025 6.72601 24.3995 4.1005C21.774 1.475 18.213 0 14.5 0ZM21.7479 17.0056C21.7356 17.6107 21.6207 18.2094 21.4081 18.776C21.2208 19.2603 20.9344 19.7001 20.5673 20.0673C20.2001 20.4344 19.7603 20.7208 19.276 20.9081C18.7098 21.1205 18.1117 21.2354 17.5071 21.2479C16.7283 21.2829 16.4804 21.2917 14.5 21.2917C12.5196 21.2917 12.2717 21.2829 11.4929 21.2479C10.8883 21.2354 10.2902 21.1205 9.72396 20.9081C9.23968 20.7208 8.79987 20.4344 8.43272 20.0673C8.06556 19.7001 7.77916 19.2603 7.59188 18.776C7.37949 18.2098 7.2646 17.6117 7.25209 17.0071C7.21709 16.2283 7.20834 15.9804 7.20834 14C7.20834 12.0196 7.21709 11.7717 7.25209 10.9929C7.26413 10.3884 7.37853 9.79026 7.59042 9.22396C7.7777 8.73926 8.06424 8.29908 8.43166 7.93166C8.79909 7.56424 9.23927 7.27769 9.72396 7.09042C10.2903 6.87852 10.8884 6.76413 11.4929 6.75208C12.2717 6.71708 12.5196 6.70833 14.5 6.70833C16.4804 6.70833 16.7283 6.71708 17.5071 6.75208C18.1116 6.76413 18.7097 6.87852 19.276 7.09042C19.7605 7.27786 20.2004 7.56448 20.5675 7.9319C20.9347 8.29931 21.221 8.73941 21.4081 9.22396C21.6205 9.79018 21.7354 10.3883 21.7479 10.9929C21.7829 11.7717 21.7917 12.0196 21.7917 14C21.7917 15.9804 21.7829 16.2269 21.7479 17.0056Z" fill="black"/>
</svg>
