<svg width="40" height="36" viewBox="0 0 40 36" fill="none" xmlns="http://www.w3.org/2000/svg">
<path fill-rule="evenodd" clip-rule="evenodd" d="M0 13C0 12.337 0.263392 11.7011 0.732233 11.2322C1.20107 10.7634 1.83696 10.5 2.5 10.5H28.27C28.933 10.5 29.5689 10.7634 30.0378 11.2322C30.5066 11.7011 30.77 12.337 30.77 13C30.77 13.663 30.5066 14.2989 30.0378 14.7678C29.5689 15.2366 28.933 15.5 28.27 15.5H2.5C1.83696 15.5 1.20107 15.2366 0.732233 14.7678C0.263392 14.2989 0 13.663 0 13ZM0 3C0 2.33696 0.263392 1.70107 0.732233 1.23223C1.20107 0.763392 1.83696 0.5 2.5 0.5H37.5C38.163 0.5 38.7989 0.763392 39.2678 1.23223C39.7366 1.70107 40 2.33696 40 3C40 3.66304 39.7366 4.29893 39.2678 4.76777C38.7989 5.23661 38.163 5.5 37.5 5.5H2.5C1.83696 5.5 1.20107 5.23661 0.732233 4.76777C0.263392 4.29893 0 3.66304 0 3ZM0 23C0 22.337 0.263392 21.7011 0.732233 21.2322C1.20107 20.7634 1.83696 20.5 2.5 20.5H37.5C38.163 20.5 38.7989 20.7634 39.2678 21.2322C39.7366 21.7011 40 22.337 40 23C40 23.663 39.7366 24.2989 39.2678 24.7678C38.7989 25.2366 38.163 25.5 37.5 25.5H2.5C1.83696 25.5 1.20107 25.2366 0.732233 24.7678C0.263392 24.2989 0 23.663 0 23ZM0 33C0 32.337 0.263392 31.7011 0.732233 31.2322C1.20107 30.7634 1.83696 30.5 2.5 30.5H28.27C28.933 30.5 29.5689 30.7634 30.0378 31.2322C30.5066 31.7011 30.77 32.337 30.77 33C30.77 33.663 30.5066 34.2989 30.0378 34.7678C29.5689 35.2366 28.933 35.5 28.27 35.5H2.5C1.83696 35.5 1.20107 35.2366 0.732233 34.7678C0.263392 34.2989 0 33.663 0 33Z" fill="#F8F8F8"/>
</svg>
