<svg width="30" height="29" viewBox="0 0 30 29" fill="none" xmlns="http://www.w3.org/2000/svg">
<path d="M15 0C23.0164 0 29.5 6.48357 29.5 14.5C29.5 22.5164 23.0164 29 15 29C6.98357 29 0.5 22.5164 0.5 14.5C0.5 6.48357 6.98357 0 15 0ZM12.3486 22.1436C18.77 22.1436 22.2914 16.82 22.2914 12.2007V11.745C22.975 11.2479 23.5757 10.6264 24.0314 9.92214C23.41 10.1914 22.7264 10.3779 22.0221 10.4814C22.7471 10.0464 23.3064 9.36286 23.555 8.555C22.8714 8.94857 22.1257 9.23857 21.3386 9.40429C20.6964 8.72071 19.785 8.30643 18.7907 8.30643C16.8643 8.30643 15.29 9.88071 15.29 11.8071C15.29 12.0764 15.3107 12.3457 15.3936 12.5943C12.4936 12.4493 9.90429 11.0614 8.185 8.94857C7.895 9.46643 7.70857 10.0671 7.70857 10.7093C7.70857 11.9107 8.33 12.9879 9.26214 13.6093C8.68214 13.6093 8.14357 13.4436 7.68786 13.1743V13.2157C7.68786 14.9143 8.88929 16.3229 10.4843 16.6543C10.1943 16.7371 9.88357 16.7786 9.57286 16.7786C9.345 16.7786 9.13786 16.7579 8.91 16.7164C9.345 18.1043 10.65 19.1193 12.1621 19.14C10.9607 20.0721 9.44857 20.6314 7.81214 20.6314C7.52214 20.6314 7.25286 20.6314 6.98357 20.59C8.51643 21.5843 10.36 22.1643 12.3279 22.1643" fill="black"/>
</svg>
